<svg width="596" height="375" viewBox="0 0 596 375" fill="none" xmlns="http://www.w3.org/2000/svg">
<path d="M595.794 0.740234L441.286 370.753L435.22 370.543L435.285 370.756H366.285L302.478 191.512C323.442 184.136 369.269 231.739 369.285 231.756L276.85 119.517L235.285 2.75586H322.285L419.627 319.759C422.21 323.194 427.831 326.168 430.924 326.238C433.377 326.294 436.655 325.311 439.375 323.538L574.512 0L595.794 0.740234Z" fill="#0A1D3D"/>
<path d="M268.211 125.576L275.329 275.186C275.328 275.1 274.57 210.696 292.559 194.437L355.107 371.338H269.785L173.855 67.8379C173.832 67.8107 173.808 67.7837 173.785 67.7559C171.411 64.9205 166.171 62.0206 162.163 62.2217C157.966 62.4322 151.921 62.5034 148.785 69.2559C148.444 69.9901 148.091 70.6034 147.737 71.1172L19.5586 374.378L0 373.478L153.285 2.75586H224.785L268.211 125.576Z" fill="#0A1D3D"/>
</svg>
